<svg xmlns="http://www.w3.org/2000/svg" viewBox="0 0 2000 516.54" xml:space="preserve" aria-label="logo" class="logo logo-more-420"><path d="M917.45 172.27c48.08 0 85.4 37.56 85.4 86.36 0 49.28-37.32 86.6-85.4 86.6-48.09 0-84.69-37.32-84.69-86.6.01-48.8 36.61-86.36 84.69-86.36zm.72 146.89c32.3 0 55.74-26.08 55.74-60.52 0-33.73-23.45-60.05-55.74-60.05-33.01 0-56.46 26.31-56.46 60.05 0 34.44 23.45 60.52 56.46 60.52zM1027.48 342.6V175.14h52.39c45.21 0 90.67 19.14 90.67 82.53 0 63.64-45.45 84.93-90.67 84.93h-52.39zm28.46-141.62v115.79h18.66c35.64 0 66.75-11.72 66.75-59.09 0-45.69-31.1-56.7-66.99-56.7h-18.42zM1470.31 342.58l-83.25-119.97v119.97h-28.47V175.12h28.47l83.25 120.45V175.12h28.71v167.46h-28.71zM1580.99 269.87c-30.62-5.03-49.04-22.25-49.04-49.52 0-29.9 27.27-48.08 59.09-48.08 29.66 0 48.56 12.68 61.96 26.79l-19.86 21.05c-9.33-11.24-22.73-22.01-43.3-22.01s-29.18 11.48-29.18 21.53c0 11.24 7.18 19.14 26.55 22.49l16.75 2.87c35.88 6.22 52.39 24.64 52.39 51.2 0 28.23-23.68 49.04-64.11 49.04-31.1 0-52.87-14.59-66.75-32.06l19.38-19.62c10.29 13.4 24.16 25.84 50.96 25.84 21.29 0 31.82-10.05 31.82-22.73 0-10.76-6.7-20.09-26.31-23.44l-20.35-3.35zM1791.04 342.53v-72.49h-78.71v72.49h-28.47V175.07h28.47v68.9h78.71v-68.9h28.71v167.46h-28.71zM824.94 175.12l-30.81-.53-58.96 104.81-21.09-8.29v-95.99h-28.46v167.46h28.46v-42.1l113.1 44.75v-29.68l-66.08-26.06zM1288.4 175.12h-62.05l-47.25 167.45h30.45l8.92-33.69h77.81l8.92 33.69h30.45l-47.25-167.45zm-63.05 107.89 21.53-82h21l21.53 82h-64.06zM1951.89 175.12h-62.05l-47.25 167.45h30.45l8.92-33.69h77.81l8.92 33.69h30.45l-47.25-167.45zm-63.05 107.89 21.53-82h21l21.53 82h-64.06zM-.86 0v516.54h516.54V0H-.86zm211.3 294.08V28.47h250.98l-157.1 289.15-93.88-23.54zM487.22 40.62v322.85l-154.37-38.7L487.22 40.62zM181.97 28.47v258.47l-154.36-38.7V28.47h154.36zM27.61 277.6l154.36 38.7v171.78H27.61V277.6zm182.83 210.47V323.43l276.78 69.39v95.25H210.44z"></path></svg>